<?xml version="1.0" encoding="UTF-8" standalone="no"?><svg xmlns="http://www.w3.org/2000/svg" xmlns:xlink="http://www.w3.org/1999/xlink" clip-rule="evenodd" stroke-miterlimit="4.00" viewBox="0 0 1024 768"><desc>SVG generated by Keynote</desc><defs></defs><g transform="matrix(1.00, 0.00, -0.00, -1.00, 0.0, 768.0)"><path d="M 0.0 768.0 L 1024.0 768.0 L 1024.0 0.0 L 0.0 0.0 Z M 0.0 768.0 " fill="#011588"></path><path d="M 176.8 709.8 L 593.1 709.8 L 593.1 602.6 L 176.8 602.6 Z M 176.8 709.8 " fill="#FDB933"></path><image xlink:href="../../43B3E852-5423-442F-9ACA-E0D077190898/assets/2BF88A64B10C9D3DD473E50E93C2C402.png" width="153.00" height="104.00" transform="matrix(0.65, 0.00, -0.00, -0.64, 658.0, 254.0)"></image><g><clipPath id="clip-21"><path d="M 232.3 606.9 L 591.6 606.9 L 591.6 630.4 L 232.3 630.4 Z M 232.3 606.9 "></path></clipPath><g clip-path="url(#clip-21)"><text xml:space="preserve" font-family="RockwellStd" font-size="26.0" fill="#52575F" transform="matrix(1.00, 0.00, -0.00, -1.00, 239.0, 613.0)">P</text><text xml:space="preserve" font-family="RockwellStd" font-size="26.0" fill="#52575F" transform="matrix(1.00, 0.00, -0.00, -1.00, 255.3, 613.0)">A</text><text xml:space="preserve" font-family="RockwellStd" font-size="26.0" fill="#52575F" transform="matrix(1.00, 0.00, -0.00, -1.00, 276.9, 613.0)">R</text><text xml:space="preserve" font-family="RockwellStd" font-size="26.0" fill="#52575F" transform="matrix(1.00, 0.00, -0.00, -1.00, 295.9, 613.0)">C</text><text xml:space="preserve" font-family="RockwellStd" font-size="26.0" fill="#52575F" transform="matrix(1.00, 0.00, -0.00, -1.00, 319.1, 613.0)">E</text><text xml:space="preserve" font-family="RockwellStd" font-size="26.0" fill="#52575F" transform="matrix(1.00, 0.00, -0.00, -1.00, 338.7, 613.0)">R</text><text xml:space="preserve" font-family="RockwellStd" font-size="26.0" fill="#52575F" transform="matrix(1.00, 0.00, -0.00, -1.00, 357.8, 613.0)">I</text><text xml:space="preserve" font-family="RockwellStd" font-size="26.0" fill="#52575F" transform="matrix(1.00, 0.00, -0.00, -1.00, 369.3, 613.0)">A</text><text xml:space="preserve" font-family="RockwellStd" font-size="26.0" fill="#52575F" transform="matrix(1.00, 0.00, -0.00, -1.00, 390.8, 613.0)">S</text><text xml:space="preserve" font-family="RockwellStd" font-size="26.0" fill="#52575F" transform="matrix(1.00, 0.00, -0.00, -1.00, 408.0, 613.0)"> </text></g></g><image xlink:href="../../43B3E852-5423-442F-9ACA-E0D077190898/assets/9D5E536CF38089A496AC4463F3805CA8.png" width="76.00" height="54.00" transform="matrix(0.99, 0.00, -0.00, -1.00, 772.0, 759.0)"></image><path d="M 593.1 709.8 L 758.4 709.8 L 758.4 602.6 L 593.1 602.6 Z M 593.1 709.8 " fill="#FEFFFF"></path><image xlink:href="../../43B3E852-5423-442F-9ACA-E0D077190898/assets/62C791D0C23557D01C2639651063465B.png" width="198.00" height="59.00" transform="matrix(0.56, 0.00, -0.00, -0.56, 610.0, 641.0)"></image><text xml:space="preserve" font-family="Archer-Semibold" font-weight="bold" font-size="66.0" fill="#009EBD" transform="matrix(1.00, 0.00, -0.00, -1.00, 193.0, 521.0)">P</text><text xml:space="preserve" font-family="Archer-Semibold" font-weight="bold" font-size="66.0" fill="#009EBD" transform="matrix(1.00, 0.00, -0.00, -1.00, 239.9, 521.0)">R</text><text xml:space="preserve" font-family="Archer-Semibold" font-weight="bold" font-size="66.0" fill="#009EBD" transform="matrix(1.00, 0.00, -0.00, -1.00, 289.4, 521.0)">O</text><text xml:space="preserve" font-family="Archer-Semibold" font-weight="bold" font-size="66.0" fill="#009EBD" transform="matrix(1.00, 0.00, -0.00, -1.00, 349.0, 521.0)">G</text><text xml:space="preserve" font-family="Archer-Semibold" font-weight="bold" font-size="66.0" fill="#009EBD" transform="matrix(1.00, 0.00, -0.00, -1.00, 405.8, 521.0)">R</text><text xml:space="preserve" font-family="Archer-Semibold" font-weight="bold" font-size="66.0" fill="#009EBD" transform="matrix(1.00, 0.00, -0.00, -1.00, 455.3, 521.0)">A</text><text xml:space="preserve" font-family="Archer-Semibold" font-weight="bold" font-size="66.0" fill="#009EBD" transform="matrix(1.00, 0.00, -0.00, -1.00, 509.5, 521.0)">M</text><text xml:space="preserve" font-family="Archer-Semibold" font-weight="bold" font-size="66.0" fill="#009EBD" transform="matrix(1.00, 0.00, -0.00, -1.00, 575.1, 521.0)">A</text><text xml:space="preserve" font-family="Archer-Semibold" font-weight="bold" font-size="66.0" fill="#009EBD" transform="matrix(1.00, 0.00, -0.00, -1.00, 630.1, 521.0)"> </text><text xml:space="preserve" font-family="Archer-Semibold" font-weight="bold" font-size="66.0" fill="#009EBD" transform="matrix(1.00, 0.00, -0.00, -1.00, 193.0, 448.0)">P</text><text xml:space="preserve" font-family="Archer-Semibold" font-weight="bold" font-size="66.0" fill="#009EBD" transform="matrix(1.00, 0.00, -0.00, -1.00, 236.6, 448.0)">A</text><text xml:space="preserve" font-family="Archer-Semibold" font-weight="bold" font-size="66.0" fill="#009EBD" transform="matrix(1.00, 0.00, -0.00, -1.00, 291.5, 448.0)">R</text><text xml:space="preserve" font-family="Archer-Semibold" font-weight="bold" font-size="66.0" fill="#009EBD" transform="matrix(1.00, 0.00, -0.00, -1.00, 341.0, 448.0)">A</text><text xml:space="preserve" font-family="Archer-Semibold" font-weight="bold" font-size="66.0" fill="#009EBD" transform="matrix(1.00, 0.00, -0.00, -1.00, 395.9, 448.0)"> </text><text xml:space="preserve" font-family="Archer-Semibold" font-weight="bold" font-size="66.0" fill="#009EBD" transform="matrix(1.00, 0.00, -0.00, -1.00, 193.0, 376.0)">F</text><text xml:space="preserve" font-family="Archer-Semibold" font-weight="bold" font-size="66.0" fill="#009EBD" transform="matrix(1.00, 0.00, -0.00, -1.00, 237.5, 376.0)">U</text><text xml:space="preserve" font-family="Archer-Semibold" font-weight="bold" font-size="66.0" fill="#009EBD" transform="matrix(1.00, 0.00, -0.00, -1.00, 292.1, 376.0)">T</text><text xml:space="preserve" font-family="Archer-Semibold" font-weight="bold" font-size="66.0" fill="#009EBD" transform="matrix(1.00, 0.00, -0.00, -1.00, 341.6, 376.0)">U</text><text xml:space="preserve" font-family="Archer-Semibold" font-weight="bold" font-size="66.0" fill="#009EBD" transform="matrix(1.00, 0.00, -0.00, -1.00, 396.5, 376.0)">R</text><text xml:space="preserve" font-family="Archer-Semibold" font-weight="bold" font-size="66.0" fill="#009EBD" transform="matrix(1.00, 0.00, -0.00, -1.00, 445.9, 376.0)">O</text><text xml:space="preserve" font-family="Archer-Semibold" font-weight="bold" font-size="66.0" fill="#009EBD" transform="matrix(1.00, 0.00, -0.00, -1.00, 504.2, 376.0)">S</text><text xml:space="preserve" font-family="Archer-Semibold" font-weight="bold" font-size="66.0" fill="#009EBD" transform="matrix(1.00, 0.00, -0.00, -1.00, 549.2, 376.0)"> </text><text xml:space="preserve" font-family="Archer-Semibold" font-weight="bold" font-size="66.0" fill="#009EBD" transform="matrix(1.00, 0.00, -0.00, -1.00, 193.0, 303.0)">A</text><text xml:space="preserve" font-family="Archer-Semibold" font-weight="bold" font-size="66.0" fill="#009EBD" transform="matrix(1.00, 0.00, -0.00, -1.00, 246.3, 303.0)">C</text><text xml:space="preserve" font-family="Archer-Semibold" font-weight="bold" font-size="66.0" fill="#009EBD" transform="matrix(1.00, 0.00, -0.00, -1.00, 301.2, 303.0)">I</text><text xml:space="preserve" font-family="Archer-Semibold" font-weight="bold" font-size="66.0" fill="#009EBD" transform="matrix(1.00, 0.00, -0.00, -1.00, 332.8, 303.0)">O</text><text xml:space="preserve" font-family="Archer-Semibold" font-weight="bold" font-size="66.0" fill="#009EBD" transform="matrix(1.00, 0.00, -0.00, -1.00, 392.4, 303.0)">N</text><text xml:space="preserve" font-family="Archer-Semibold" font-weight="bold" font-size="66.0" fill="#009EBD" transform="matrix(1.00, 0.00, -0.00, -1.00, 450.8, 303.0)">I</text><text xml:space="preserve" font-family="Archer-Semibold" font-weight="bold" font-size="66.0" fill="#009EBD" transform="matrix(1.00, 0.00, -0.00, -1.00, 482.3, 303.0)">S</text><text xml:space="preserve" font-family="Archer-Semibold" font-weight="bold" font-size="66.0" fill="#009EBD" transform="matrix(1.00, 0.00, -0.00, -1.00, 526.4, 303.0)">T</text><text xml:space="preserve" font-family="Archer-Semibold" font-weight="bold" font-size="66.0" fill="#009EBD" transform="matrix(1.00, 0.00, -0.00, -1.00, 572.9, 303.0)">A</text><text xml:space="preserve" font-family="Archer-Semibold" font-weight="bold" font-size="66.0" fill="#009EBD" transform="matrix(1.00, 0.00, -0.00, -1.00, 626.5, 303.0)">S</text><path d="M 526.4 186.1 L 540.1 198.1 L 512.6 198.1 Z M 526.4 186.1 " fill="#DCDDE0"></path><path d="M 956.9 323.7 L 970.7 335.8 L 943.2 335.8 Z M 956.9 323.7 " fill="#DCDDE0"></path><path d="M 956.9 443.5 L 970.7 431.5 L 943.2 431.5 Z M 956.9 443.5 " fill="#DCDDE0"></path><g><clipPath id="clip-22"><path d="M 141.3 188.1 L 281.9 188.1 L 281.9 301.6 L 141.3 301.6 Z M 141.3 188.1 "></path></clipPath><g clip-path="url(#clip-22)"><text xml:space="preserve" font-family="SourceSansPro-Light" font-size="96.0" fill="#FEFFFF" transform="matrix(1.00, 0.00, -0.00, -1.00, 171.0, 208.0)">6</text></g></g></g></svg>