<?xml version="1.0" encoding="UTF-8" standalone="no"?><svg xmlns="http://www.w3.org/2000/svg" xmlns:xlink="http://www.w3.org/1999/xlink" clip-rule="evenodd" stroke-miterlimit="4.00" viewBox="0 0 1920 1080"><desc>SVG generated by Keynote</desc><defs></defs><g transform="matrix(1.00, 0.00, -0.00, -1.00, 0.0, 1080.0)"><path d="M 0.0 1080.0 L 1920.0 1080.0 L 1920.0 0.0 L 0.0 0.0 Z M 0.0 1080.0 " fill="#011588"></path><path d="M 555.0 721.9 L 1132.6 721.9 L 1132.6 236.2 L 555.0 236.2 Z M 555.0 721.9 " fill="#009EBD"></path><path d="M 547.2 849.5 L 1132.6 849.5 L 1132.6 698.8 L 547.2 698.8 Z M 547.2 849.5 " fill="#FDB933"></path><image xlink:href="../../54B62F7F-6C92-40B7-922C-8A55C36AFF4D/assets/EA741A990EE436975B62B00BCC5AC70C.png" width="125.00" height="85.00" transform="matrix(1.00, 0.00, -0.00, -0.99, 1173.0, 352.0)"></image><g><clipPath id="clip-90"><path d="M 625.3 705.2 L 1130.2 705.2 L 1130.2 737.9 L 625.3 737.9 Z M 625.3 705.2 "></path></clipPath><g clip-path="url(#clip-90)"><text xml:space="preserve" font-family="RockwellStd" font-size="36.0" fill="#52575F" transform="matrix(1.00, 0.00, -0.00, -1.00, 634.0, 714.0)">P</text><text xml:space="preserve" font-family="RockwellStd" font-size="36.0" fill="#52575F" transform="matrix(1.00, 0.00, -0.00, -1.00, 656.6, 714.0)">A</text><text xml:space="preserve" font-family="RockwellStd" font-size="36.0" fill="#52575F" transform="matrix(1.00, 0.00, -0.00, -1.00, 686.4, 714.0)">R</text><text xml:space="preserve" font-family="RockwellStd" font-size="36.0" fill="#52575F" transform="matrix(1.00, 0.00, -0.00, -1.00, 712.8, 714.0)">C</text><text xml:space="preserve" font-family="RockwellStd" font-size="36.0" fill="#52575F" transform="matrix(1.00, 0.00, -0.00, -1.00, 744.9, 714.0)">E</text><text xml:space="preserve" font-family="RockwellStd" font-size="36.0" fill="#52575F" transform="matrix(1.00, 0.00, -0.00, -1.00, 772.1, 714.0)">R</text><text xml:space="preserve" font-family="RockwellStd" font-size="36.0" fill="#52575F" transform="matrix(1.00, 0.00, -0.00, -1.00, 798.5, 714.0)">I</text><text xml:space="preserve" font-family="RockwellStd" font-size="36.0" fill="#52575F" transform="matrix(1.00, 0.00, -0.00, -1.00, 814.4, 714.0)">A</text><text xml:space="preserve" font-family="RockwellStd" font-size="36.0" fill="#52575F" transform="matrix(1.00, 0.00, -0.00, -1.00, 844.2, 714.0)">S</text><text xml:space="preserve" font-family="RockwellStd" font-size="36.0" fill="#52575F" transform="matrix(1.00, 0.00, -0.00, -1.00, 868.0, 714.0)"> </text></g></g><image xlink:href="622CCECC4B39E781DDC67BEF778A5C62.png" width="106.00" height="76.00" transform="matrix(1.00, 0.00, -0.00, -1.00, 1384.0, 919.0)"></image><path d="M 1132.6 849.5 L 1365.0 849.5 L 1365.0 698.8 L 1132.6 698.8 Z M 1132.6 849.5 " fill="#FEFFFF"></path><image xlink:href="4C43AC7EEF34444E1C0C91795B71973E.png" width="157.00" height="46.00" transform="matrix(1.00, 0.00, -0.00, -1.02, 1156.0, 753.0)"></image><text xml:space="preserve" font-family="RockwellStd" font-size="78.0" fill="#011588" transform="matrix(1.00, 0.00, -0.00, -1.00, 635.0, 569.0)">P</text><text xml:space="preserve" font-family="RockwellStd" font-size="78.0" fill="#011588" transform="matrix(1.00, 0.00, -0.00, -1.00, 689.8, 569.0)">R</text><text xml:space="preserve" font-family="RockwellStd" font-size="78.0" fill="#011588" transform="matrix(1.00, 0.00, -0.00, -1.00, 745.5, 569.0)">O</text><text xml:space="preserve" font-family="RockwellStd" font-size="78.0" fill="#011588" transform="matrix(1.00, 0.00, -0.00, -1.00, 818.2, 569.0)">G</text><text xml:space="preserve" font-family="RockwellStd" font-size="78.0" fill="#011588" transform="matrix(1.00, 0.00, -0.00, -1.00, 890.9, 569.0)">R</text><text xml:space="preserve" font-family="RockwellStd" font-size="78.0" fill="#011588" transform="matrix(1.00, 0.00, -0.00, -1.00, 948.2, 569.0)">A</text><text xml:space="preserve" font-family="RockwellStd" font-size="78.0" fill="#011588" transform="matrix(1.00, 0.00, -0.00, -1.00, 635.0, 482.0)">M</text><text xml:space="preserve" font-family="RockwellStd" font-size="78.0" fill="#011588" transform="matrix(1.00, 0.00, -0.00, -1.00, 713.4, 482.0)">A</text><text xml:space="preserve" font-family="RockwellStd" font-size="78.0" fill="#011588" transform="matrix(1.00, 0.00, -0.00, -1.00, 778.0, 482.0)"> </text><text xml:space="preserve" font-family="RockwellStd" font-size="78.0" fill="#011588" transform="matrix(1.00, 0.00, -0.00, -1.00, 807.6, 482.0)">P</text><text xml:space="preserve" font-family="RockwellStd" font-size="78.0" fill="#011588" transform="matrix(1.00, 0.00, -0.00, -1.00, 856.6, 482.0)">A</text><text xml:space="preserve" font-family="RockwellStd" font-size="78.0" fill="#011588" transform="matrix(1.00, 0.00, -0.00, -1.00, 921.2, 482.0)">R</text><text xml:space="preserve" font-family="RockwellStd" font-size="78.0" fill="#011588" transform="matrix(1.00, 0.00, -0.00, -1.00, 978.4, 482.0)">A</text><text xml:space="preserve" font-family="RockwellStd" font-size="78.0" fill="#011588" transform="matrix(1.00, 0.00, -0.00, -1.00, 1043.0, 482.0)"> </text><path d="M 980.2 261.6 L 999.6 278.6 L 960.9 278.6 Z M 980.2 261.6 " fill="#DCDDE0"></path><path d="M 1447.5 455.2 L 1466.8 472.2 L 1428.2 472.2 Z M 1447.5 455.2 " fill="#DCDDE0"></path><path d="M 1447.5 623.7 L 1466.8 606.7 L 1428.2 606.7 Z M 1447.5 623.7 " fill="#DCDDE0"></path><g><clipPath id="clip-91"><path d="M 439.0 264.4 L 636.0 264.4 L 636.0 424.1 L 439.0 424.1 Z M 439.0 264.4 "></path></clipPath><g clip-path="url(#clip-91)"><text xml:space="preserve" font-family="SourceSansPro-Light" font-size="134.0" fill="#FEFFFF" transform="matrix(1.00, 0.00, -0.00, -1.00, 481.0, 292.0)">4</text></g></g></g></svg>