<?xml version="1.0" encoding="UTF-8" standalone="no"?><svg xmlns="http://www.w3.org/2000/svg" xmlns:xlink="http://www.w3.org/1999/xlink" clip-rule="evenodd" stroke-miterlimit="4.00" viewBox="0 0 1024 768"><desc>SVG generated by Keynote</desc><defs></defs><g transform="matrix(1.00, 0.00, -0.00, -1.00, 0.0, 768.0)"><path d="M 0.0 768.0 L 1024.0 768.0 L 1024.0 0.0 L 0.0 0.0 Z M 0.0 768.0 " fill="#011588"></path><text xml:space="preserve" font-family="SourceSansPro-Light" font-size="80.0" fill="#FEFFFF" transform="matrix(1.00, 0.00, -0.00, -1.00, 233.0, 531.0)">P</text><text xml:space="preserve" font-family="SourceSansPro-Light" font-size="80.0" fill="#FEFFFF" transform="matrix(1.00, 0.00, -0.00, -1.00, 277.1, 531.0)">r</text><text xml:space="preserve" font-family="SourceSansPro-Light" font-size="80.0" fill="#FEFFFF" transform="matrix(1.00, 0.00, -0.00, -1.00, 301.6, 531.0)">o</text><text xml:space="preserve" font-family="SourceSansPro-Light" font-size="80.0" fill="#FEFFFF" transform="matrix(1.00, 0.00, -0.00, -1.00, 344.4, 531.0)">g</text><text xml:space="preserve" font-family="SourceSansPro-Light" font-size="80.0" fill="#FEFFFF" transform="matrix(1.00, 0.00, -0.00, -1.00, 383.4, 531.0)">r</text><text xml:space="preserve" font-family="SourceSansPro-Light" font-size="80.0" fill="#FEFFFF" transform="matrix(1.00, 0.00, -0.00, -1.00, 406.9, 531.0)">a</text><text xml:space="preserve" font-family="SourceSansPro-Light" font-size="80.0" fill="#FEFFFF" transform="matrix(1.00, 0.00, -0.00, -1.00, 446.8, 531.0)">m</text><text xml:space="preserve" font-family="SourceSansPro-Light" font-size="80.0" fill="#FEFFFF" transform="matrix(1.00, 0.00, -0.00, -1.00, 511.8, 531.0)">a</text><text xml:space="preserve" font-family="SourceSansPro-Light" font-size="80.0" fill="#FEFFFF" transform="matrix(1.00, 0.00, -0.00, -1.00, 551.7, 531.0)"> </text><text xml:space="preserve" font-family="SourceSansPro-Light" font-size="80.0" fill="#FEFFFF" transform="matrix(1.00, 0.00, -0.00, -1.00, 233.0, 450.0)">p</text><text xml:space="preserve" font-family="SourceSansPro-Light" font-size="80.0" fill="#FEFFFF" transform="matrix(1.00, 0.00, -0.00, -1.00, 275.3, 450.0)">a</text><text xml:space="preserve" font-family="SourceSansPro-Light" font-size="80.0" fill="#FEFFFF" transform="matrix(1.00, 0.00, -0.00, -1.00, 315.2, 450.0)">r</text><text xml:space="preserve" font-family="SourceSansPro-Light" font-size="80.0" fill="#FEFFFF" transform="matrix(1.00, 0.00, -0.00, -1.00, 338.8, 450.0)">a</text><text xml:space="preserve" font-family="SourceSansPro-Light" font-size="80.0" fill="#FEFFFF" transform="matrix(1.00, 0.00, -0.00, -1.00, 378.7, 450.0)"> </text><text xml:space="preserve" font-family="SourceSansPro-Light" font-size="80.0" fill="#FEFFFF" transform="matrix(1.00, 0.00, -0.00, -1.00, 394.6, 450.0)">F</text><text xml:space="preserve" font-family="SourceSansPro-Light" font-size="80.0" fill="#FEFFFF" transform="matrix(1.00, 0.00, -0.00, -1.00, 430.9, 450.0)">u</text><text xml:space="preserve" font-family="SourceSansPro-Light" font-size="80.0" fill="#FEFFFF" transform="matrix(1.00, 0.00, -0.00, -1.00, 473.2, 450.0)">t</text><text xml:space="preserve" font-family="SourceSansPro-Light" font-size="80.0" fill="#FEFFFF" transform="matrix(1.00, 0.00, -0.00, -1.00, 497.5, 450.0)">u</text><text xml:space="preserve" font-family="SourceSansPro-Light" font-size="80.0" fill="#FEFFFF" transform="matrix(1.00, 0.00, -0.00, -1.00, 539.8, 450.0)">r</text><text xml:space="preserve" font-family="SourceSansPro-Light" font-size="80.0" fill="#FEFFFF" transform="matrix(1.00, 0.00, -0.00, -1.00, 564.4, 450.0)">o</text><text xml:space="preserve" font-family="SourceSansPro-Light" font-size="80.0" fill="#FEFFFF" transform="matrix(1.00, 0.00, -0.00, -1.00, 607.2, 450.0)">s</text><text xml:space="preserve" font-family="SourceSansPro-Light" font-size="80.0" fill="#FEFFFF" transform="matrix(1.00, 0.00, -0.00, -1.00, 639.6, 450.0)"> </text><text xml:space="preserve" font-family="SourceSansPro-Light" font-size="80.0" fill="#FEFFFF" transform="matrix(1.00, 0.00, -0.00, -1.00, 233.0, 370.0)">A</text><text xml:space="preserve" font-family="SourceSansPro-Light" font-size="80.0" fill="#FEFFFF" transform="matrix(1.00, 0.00, -0.00, -1.00, 274.5, 370.0)">c</text><text xml:space="preserve" font-family="SourceSansPro-Light" font-size="80.0" fill="#FEFFFF" transform="matrix(1.00, 0.00, -0.00, -1.00, 310.4, 370.0)">i</text><text xml:space="preserve" font-family="SourceSansPro-Light" font-size="80.0" fill="#FEFFFF" transform="matrix(1.00, 0.00, -0.00, -1.00, 328.8, 370.0)">o</text><text xml:space="preserve" font-family="SourceSansPro-Light" font-size="80.0" fill="#FEFFFF" transform="matrix(1.00, 0.00, -0.00, -1.00, 371.6, 370.0)">n</text><text xml:space="preserve" font-family="SourceSansPro-Light" font-size="80.0" fill="#FEFFFF" transform="matrix(1.00, 0.00, -0.00, -1.00, 414.1, 370.0)">i</text><text xml:space="preserve" font-family="SourceSansPro-Light" font-size="80.0" fill="#FEFFFF" transform="matrix(1.00, 0.00, -0.00, -1.00, 432.4, 370.0)">s</text><text xml:space="preserve" font-family="SourceSansPro-Light" font-size="80.0" fill="#FEFFFF" transform="matrix(1.00, 0.00, -0.00, -1.00, 464.8, 370.0)">t</text><text xml:space="preserve" font-family="SourceSansPro-Light" font-size="80.0" fill="#FEFFFF" transform="matrix(1.00, 0.00, -0.00, -1.00, 488.1, 370.0)">a</text><text xml:space="preserve" font-family="SourceSansPro-Light" font-size="80.0" fill="#FEFFFF" transform="matrix(1.00, 0.00, -0.00, -1.00, 528.0, 370.0)">s</text><image xlink:href="107DB2515050C3E5DE4CC777E68D791D.png" width="89.00" height="60.00" transform="matrix(0.99, 0.00, -0.00, -1.00, 664.0, 250.0)"></image><path d="M 9.2 0.0 L 100.5 0.0 C 103.1 0.0 104.5 0.0 105.9 0.4 C 107.4 1.0 108.7 2.2 109.2 3.8 C 109.7 5.2 109.7 6.5 109.7 9.2 L 109.7 19.6 C 109.7 22.2 109.7 23.5 109.2 25.0 C 108.7 26.5 107.4 27.7 105.9 28.3 C 104.5 28.8 103.1 28.8 100.5 28.8 L 9.2 28.8 C 6.5 28.8 5.2 28.8 3.8 28.3 C 2.2 27.7 1.0 26.5 0.4 25.0 C 0.0 23.5 0.0 22.2 0.0 19.5 L 0.0 9.2 C 0.0 6.5 0.0 5.2 0.4 3.8 C 1.0 2.2 2.2 1.0 3.8 0.4 C 5.2 0.0 6.5 0.0 9.2 0.0 Z M 9.2 0.0 " fill="none" stroke="#85878C" stroke-width="0.35" transform="matrix(1.00, 0.00, 0.00, -1.00, 303.1, 279.6)"></path><g><clipPath id="clip-9"><path d="M 303.1 250.9 L 412.8 250.9 L 412.8 280.4 L 303.1 280.4 Z M 303.1 250.9 "></path></clipPath><g clip-path="url(#clip-9)"><text xml:space="preserve" font-family="SourceSansPro-Semibold" font-weight="bold" font-size="12.0" fill="#FEFFFF" transform="matrix(1.00, 0.00, -0.00, -1.00, 324.0, 265.0)">P</text><text xml:space="preserve" font-family="SourceSansPro-Semibold" font-weight="bold" font-size="12.0" fill="#FEFFFF" transform="matrix(1.00, 0.00, -0.00, -1.00, 331.1, 265.0)">r</text><text xml:space="preserve" font-family="SourceSansPro-Semibold" font-weight="bold" font-size="12.0" fill="#FEFFFF" transform="matrix(1.00, 0.00, -0.00, -1.00, 335.4, 265.0)">o</text><text xml:space="preserve" font-family="SourceSansPro-Semibold" font-weight="bold" font-size="12.0" fill="#FEFFFF" transform="matrix(1.00, 0.00, -0.00, -1.00, 342.0, 265.0)">f</text><text xml:space="preserve" font-family="SourceSansPro-Semibold" font-weight="bold" font-size="12.0" fill="#FEFFFF" transform="matrix(1.00, 0.00, -0.00, -1.00, 345.6, 265.0)">e</text><text xml:space="preserve" font-family="SourceSansPro-Semibold" font-weight="bold" font-size="12.0" fill="#FEFFFF" transform="matrix(1.00, 0.00, -0.00, -1.00, 351.7, 265.0)">s</text><text xml:space="preserve" font-family="SourceSansPro-Semibold" font-weight="bold" font-size="12.0" fill="#FEFFFF" transform="matrix(1.00, 0.00, -0.00, -1.00, 356.9, 265.0)">s</text><text xml:space="preserve" font-family="SourceSansPro-Semibold" font-weight="bold" font-size="12.0" fill="#FEFFFF" transform="matrix(1.00, 0.00, -0.00, -1.00, 362.1, 265.0)">o</text><text xml:space="preserve" font-family="SourceSansPro-Semibold" font-weight="bold" font-size="12.0" fill="#FEFFFF" transform="matrix(1.00, 0.00, -0.00, -1.00, 368.7, 265.0)">r</text><text xml:space="preserve" font-family="SourceSansPro-Semibold" font-weight="bold" font-size="12.0" fill="#FEFFFF" transform="matrix(1.00, 0.00, -0.00, -1.00, 373.0, 265.0)">e</text><text xml:space="preserve" font-family="SourceSansPro-Semibold" font-weight="bold" font-size="12.0" fill="#FEFFFF" transform="matrix(1.00, 0.00, -0.00, -1.00, 379.1, 265.0)">s</text><text xml:space="preserve" font-family="SourceSansPro-Semibold" font-weight="bold" font-size="12.0" fill="#FEFFFF" transform="matrix(1.00, 0.00, -0.00, -1.00, 384.3, 265.0)"> </text><text xml:space="preserve" font-family="SourceSansPro-Semibold" font-weight="bold" font-size="12.0" fill="#FEFFFF" transform="matrix(1.00, 0.00, -0.00, -1.00, 386.7, 265.0)">e</text><text xml:space="preserve" font-family="SourceSansPro-Semibold" font-weight="bold" font-size="12.0" fill="#FEFFFF" transform="matrix(1.00, 0.00, -0.00, -1.00, 392.8, 265.0)"> </text></g></g><path d="M 9.2 0.0 L 100.5 0.0 C 103.1 0.0 104.5 0.0 105.9 0.4 C 107.4 1.0 108.7 2.2 109.2 3.8 C 109.7 5.2 109.7 6.5 109.7 9.2 L 109.7 19.6 C 109.7 22.2 109.7 23.5 109.2 25.0 C 108.7 26.5 107.4 27.7 105.9 28.3 C 104.5 28.8 103.1 28.8 100.5 28.8 L 9.2 28.8 C 6.5 28.8 5.2 28.8 3.8 28.3 C 2.2 27.7 1.0 26.5 0.4 25.0 C 0.0 23.5 0.0 22.2 0.0 19.5 L 0.0 9.2 C 0.0 6.5 0.0 5.2 0.4 3.8 C 1.0 2.2 2.2 1.0 3.8 0.4 C 5.2 0.0 6.5 0.0 9.2 0.0 Z M 9.2 0.0 " fill="none" stroke="#85878C" stroke-width="0.35" transform="matrix(1.00, 0.00, 0.00, -1.00, 436.3, 279.6)"></path><g><clipPath id="clip-10"><path d="M 435.0 250.9 L 547.3 250.9 L 547.3 279.6 L 435.0 279.6 Z M 435.0 250.9 "></path></clipPath><g clip-path="url(#clip-10)"><text xml:space="preserve" font-family="SourceSansPro-Semibold" font-weight="bold" font-size="12.0" fill="#FEFFFF" transform="matrix(1.00, 0.00, -0.00, -1.00, 466.0, 260.0)">P</text><text xml:space="preserve" font-family="SourceSansPro-Semibold" font-weight="bold" font-size="12.0" fill="#FEFFFF" transform="matrix(1.00, 0.00, -0.00, -1.00, 473.1, 260.0)">r</text><text xml:space="preserve" font-family="SourceSansPro-Semibold" font-weight="bold" font-size="12.0" fill="#FEFFFF" transform="matrix(1.00, 0.00, -0.00, -1.00, 477.4, 260.0)">o</text><text xml:space="preserve" font-family="SourceSansPro-Semibold" font-weight="bold" font-size="12.0" fill="#FEFFFF" transform="matrix(1.00, 0.00, -0.00, -1.00, 484.0, 260.0)">g</text><text xml:space="preserve" font-family="SourceSansPro-Semibold" font-weight="bold" font-size="12.0" fill="#FEFFFF" transform="matrix(1.00, 0.00, -0.00, -1.00, 490.2, 260.0)">r</text><text xml:space="preserve" font-family="SourceSansPro-Semibold" font-weight="bold" font-size="12.0" fill="#FEFFFF" transform="matrix(1.00, 0.00, -0.00, -1.00, 494.4, 260.0)">a</text><text xml:space="preserve" font-family="SourceSansPro-Semibold" font-weight="bold" font-size="12.0" fill="#FEFFFF" transform="matrix(1.00, 0.00, -0.00, -1.00, 500.7, 260.0)">m</text><text xml:space="preserve" font-family="SourceSansPro-Semibold" font-weight="bold" font-size="12.0" fill="#FEFFFF" transform="matrix(1.00, 0.00, -0.00, -1.00, 510.8, 260.0)">a</text></g></g><path d="M 526.4 186.1 L 540.1 198.1 L 512.6 198.1 Z M 526.4 186.1 " fill="#DCDDE0"></path><path d="M 858.7 323.7 L 872.4 335.8 L 844.9 335.8 Z M 858.7 323.7 " fill="#DCDDE0"></path><path d="M 858.7 443.5 L 872.4 431.5 L 844.9 431.5 Z M 858.7 443.5 " fill="#DCDDE0"></path><g><clipPath id="clip-11"><path d="M 141.3 186.9 L 281.9 186.9 L 281.9 300.4 L 141.3 300.4 Z M 141.3 186.9 "></path></clipPath><g clip-path="url(#clip-11)"><text xml:space="preserve" font-family="SourceSansPro-Light" font-size="96.0" fill="#FEFFFF" transform="matrix(1.00, 0.00, -0.00, -1.00, 171.0, 207.0)">3</text></g></g></g></svg>