<?xml version="1.0" encoding="UTF-8" standalone="no"?><svg xmlns="http://www.w3.org/2000/svg" xmlns:xlink="http://www.w3.org/1999/xlink" clip-rule="evenodd" stroke-miterlimit="4.00" viewBox="0 0 1920 1080"><desc>SVG generated by Keynote</desc><defs></defs><g transform="matrix(1.00, 0.00, -0.00, -1.00, 0.0, 1080.0)"><path d="M 0.0 1080.0 L 1920.0 1080.0 L 1920.0 0.0 L 0.0 0.0 Z M 0.0 1080.0 " fill="#011588"></path><path d="M 488.7 998.1 L 1074.1 998.1 L 1074.1 847.4 L 488.7 847.4 Z M 488.7 998.1 " fill="#FDB933"></path><image xlink:href="../../43B3E852-5423-442F-9ACA-E0D077190898/assets/D3C874151EB3C07939713024CAA233FD.png" width="157.00" height="107.00" transform="matrix(0.89, 0.00, -0.00, -0.89, 1166.0, 357.0)"></image><g><clipPath id="clip-153"><path d="M 566.8 853.8 L 1071.7 853.8 L 1071.7 886.5 L 566.8 886.5 Z M 566.8 853.8 "></path></clipPath><g clip-path="url(#clip-153)"><text xml:space="preserve" font-family="RockwellStd" font-size="36.0" fill="#52575F" transform="matrix(1.00, 0.00, -0.00, -1.00, 576.0, 862.0)">P</text><text xml:space="preserve" font-family="RockwellStd" font-size="36.0" fill="#52575F" transform="matrix(1.00, 0.00, -0.00, -1.00, 598.6, 862.0)">A</text><text xml:space="preserve" font-family="RockwellStd" font-size="36.0" fill="#52575F" transform="matrix(1.00, 0.00, -0.00, -1.00, 628.4, 862.0)">R</text><text xml:space="preserve" font-family="RockwellStd" font-size="36.0" fill="#52575F" transform="matrix(1.00, 0.00, -0.00, -1.00, 654.8, 862.0)">C</text><text xml:space="preserve" font-family="RockwellStd" font-size="36.0" fill="#52575F" transform="matrix(1.00, 0.00, -0.00, -1.00, 686.9, 862.0)">E</text><text xml:space="preserve" font-family="RockwellStd" font-size="36.0" fill="#52575F" transform="matrix(1.00, 0.00, -0.00, -1.00, 714.1, 862.0)">R</text><text xml:space="preserve" font-family="RockwellStd" font-size="36.0" fill="#52575F" transform="matrix(1.00, 0.00, -0.00, -1.00, 740.5, 862.0)">I</text><text xml:space="preserve" font-family="RockwellStd" font-size="36.0" fill="#52575F" transform="matrix(1.00, 0.00, -0.00, -1.00, 756.4, 862.0)">A</text><text xml:space="preserve" font-family="RockwellStd" font-size="36.0" fill="#52575F" transform="matrix(1.00, 0.00, -0.00, -1.00, 786.2, 862.0)">S</text><text xml:space="preserve" font-family="RockwellStd" font-size="36.0" fill="#52575F" transform="matrix(1.00, 0.00, -0.00, -1.00, 810.0, 862.0)"> </text></g></g><image xlink:href="../../43B3E852-5423-442F-9ACA-E0D077190898/assets/622CCECC4B39E781DDC67BEF778A5C62.png" width="106.00" height="76.00" transform="matrix(1.00, 0.00, -0.00, -1.00, 1325.0, 1068.0)"></image><path d="M 1074.1 998.1 L 1306.5 998.1 L 1306.5 847.4 L 1074.1 847.4 Z M 1074.1 998.1 " fill="#FEFFFF"></path><image xlink:href="../../43B3E852-5423-442F-9ACA-E0D077190898/assets/62C791D0C23557D01C2639651063465B.png" width="198.00" height="59.00" transform="matrix(0.79, 0.00, -0.00, -0.78, 1098.0, 901.0)"></image><text xml:space="preserve" font-family="Archer-Semibold" font-weight="bold" font-size="92.0" fill="#009EBD" transform="matrix(1.00, 0.00, -0.00, -1.00, 511.0, 731.0)">P</text><text xml:space="preserve" font-family="Archer-Semibold" font-weight="bold" font-size="92.0" fill="#009EBD" transform="matrix(1.00, 0.00, -0.00, -1.00, 576.4, 731.0)">R</text><text xml:space="preserve" font-family="Archer-Semibold" font-weight="bold" font-size="92.0" fill="#009EBD" transform="matrix(1.00, 0.00, -0.00, -1.00, 645.3, 731.0)">O</text><text xml:space="preserve" font-family="Archer-Semibold" font-weight="bold" font-size="92.0" fill="#009EBD" transform="matrix(1.00, 0.00, -0.00, -1.00, 728.4, 731.0)">G</text><text xml:space="preserve" font-family="Archer-Semibold" font-weight="bold" font-size="92.0" fill="#009EBD" transform="matrix(1.00, 0.00, -0.00, -1.00, 807.7, 731.0)">R</text><text xml:space="preserve" font-family="Archer-Semibold" font-weight="bold" font-size="92.0" fill="#009EBD" transform="matrix(1.00, 0.00, -0.00, -1.00, 876.6, 731.0)">A</text><text xml:space="preserve" font-family="Archer-Semibold" font-weight="bold" font-size="92.0" fill="#009EBD" transform="matrix(1.00, 0.00, -0.00, -1.00, 952.2, 731.0)">M</text><text xml:space="preserve" font-family="Archer-Semibold" font-weight="bold" font-size="92.0" fill="#009EBD" transform="matrix(1.00, 0.00, -0.00, -1.00, 1043.7, 731.0)">A</text><text xml:space="preserve" font-family="Archer-Semibold" font-weight="bold" font-size="92.0" fill="#009EBD" transform="matrix(1.00, 0.00, -0.00, -1.00, 1120.2, 731.0)"> </text><text xml:space="preserve" font-family="Archer-Semibold" font-weight="bold" font-size="92.0" fill="#009EBD" transform="matrix(1.00, 0.00, -0.00, -1.00, 511.0, 630.0)">P</text><text xml:space="preserve" font-family="Archer-Semibold" font-weight="bold" font-size="92.0" fill="#009EBD" transform="matrix(1.00, 0.00, -0.00, -1.00, 571.8, 630.0)">A</text><text xml:space="preserve" font-family="Archer-Semibold" font-weight="bold" font-size="92.0" fill="#009EBD" transform="matrix(1.00, 0.00, -0.00, -1.00, 648.4, 630.0)">R</text><text xml:space="preserve" font-family="Archer-Semibold" font-weight="bold" font-size="92.0" fill="#009EBD" transform="matrix(1.00, 0.00, -0.00, -1.00, 717.3, 630.0)">A</text><text xml:space="preserve" font-family="Archer-Semibold" font-weight="bold" font-size="92.0" fill="#009EBD" transform="matrix(1.00, 0.00, -0.00, -1.00, 793.8, 630.0)"> </text><text xml:space="preserve" font-family="Archer-Semibold" font-weight="bold" font-size="92.0" fill="#009EBD" transform="matrix(1.00, 0.00, -0.00, -1.00, 511.0, 529.0)">F</text><text xml:space="preserve" font-family="Archer-Semibold" font-weight="bold" font-size="92.0" fill="#009EBD" transform="matrix(1.00, 0.00, -0.00, -1.00, 573.0, 529.0)">U</text><text xml:space="preserve" font-family="Archer-Semibold" font-weight="bold" font-size="92.0" fill="#009EBD" transform="matrix(1.00, 0.00, -0.00, -1.00, 649.1, 529.0)">T</text><text xml:space="preserve" font-family="Archer-Semibold" font-weight="bold" font-size="92.0" fill="#009EBD" transform="matrix(1.00, 0.00, -0.00, -1.00, 718.1, 529.0)">U</text><text xml:space="preserve" font-family="Archer-Semibold" font-weight="bold" font-size="92.0" fill="#009EBD" transform="matrix(1.00, 0.00, -0.00, -1.00, 794.6, 529.0)">R</text><text xml:space="preserve" font-family="Archer-Semibold" font-weight="bold" font-size="92.0" fill="#009EBD" transform="matrix(1.00, 0.00, -0.00, -1.00, 863.5, 529.0)">O</text><text xml:space="preserve" font-family="Archer-Semibold" font-weight="bold" font-size="92.0" fill="#009EBD" transform="matrix(1.00, 0.00, -0.00, -1.00, 944.8, 529.0)">S</text><text xml:space="preserve" font-family="Archer-Semibold" font-weight="bold" font-size="92.0" fill="#009EBD" transform="matrix(1.00, 0.00, -0.00, -1.00, 1007.5, 529.0)"> </text><text xml:space="preserve" font-family="Archer-Semibold" font-weight="bold" font-size="92.0" fill="#009EBD" transform="matrix(1.00, 0.00, -0.00, -1.00, 511.0, 428.0)">A</text><text xml:space="preserve" font-family="Archer-Semibold" font-weight="bold" font-size="92.0" fill="#009EBD" transform="matrix(1.00, 0.00, -0.00, -1.00, 585.3, 428.0)">C</text><text xml:space="preserve" font-family="Archer-Semibold" font-weight="bold" font-size="92.0" fill="#009EBD" transform="matrix(1.00, 0.00, -0.00, -1.00, 661.9, 428.0)">I</text><text xml:space="preserve" font-family="Archer-Semibold" font-weight="bold" font-size="92.0" fill="#009EBD" transform="matrix(1.00, 0.00, -0.00, -1.00, 705.9, 428.0)">O</text><text xml:space="preserve" font-family="Archer-Semibold" font-weight="bold" font-size="92.0" fill="#009EBD" transform="matrix(1.00, 0.00, -0.00, -1.00, 788.9, 428.0)">N</text><text xml:space="preserve" font-family="Archer-Semibold" font-weight="bold" font-size="92.0" fill="#009EBD" transform="matrix(1.00, 0.00, -0.00, -1.00, 870.4, 428.0)">I</text><text xml:space="preserve" font-family="Archer-Semibold" font-weight="bold" font-size="92.0" fill="#009EBD" transform="matrix(1.00, 0.00, -0.00, -1.00, 914.3, 428.0)">S</text><text xml:space="preserve" font-family="Archer-Semibold" font-weight="bold" font-size="92.0" fill="#009EBD" transform="matrix(1.00, 0.00, -0.00, -1.00, 975.7, 428.0)">T</text><text xml:space="preserve" font-family="Archer-Semibold" font-weight="bold" font-size="92.0" fill="#009EBD" transform="matrix(1.00, 0.00, -0.00, -1.00, 1040.6, 428.0)">A</text><text xml:space="preserve" font-family="Archer-Semibold" font-weight="bold" font-size="92.0" fill="#009EBD" transform="matrix(1.00, 0.00, -0.00, -1.00, 1115.3, 428.0)">S</text><path d="M 980.2 261.6 L 999.6 278.6 L 960.9 278.6 Z M 980.2 261.6 " fill="#DCDDE0"></path><path d="M 1585.7 455.2 L 1605.0 472.2 L 1566.3 472.2 Z M 1585.7 455.2 " fill="#DCDDE0"></path><path d="M 1585.7 623.7 L 1605.0 606.7 L 1566.3 606.7 Z M 1585.7 623.7 " fill="#DCDDE0"></path><g><clipPath id="clip-154"><path d="M 439.0 264.4 L 636.0 264.4 L 636.0 424.1 L 439.0 424.1 Z M 439.0 264.4 "></path></clipPath><g clip-path="url(#clip-154)"><text xml:space="preserve" font-family="SourceSansPro-Light" font-size="134.0" fill="#FEFFFF" transform="matrix(1.00, 0.00, -0.00, -1.00, 481.0, 292.0)">6</text></g></g></g></svg>