<?xml version="1.0" encoding="UTF-8" standalone="no"?><svg xmlns="http://www.w3.org/2000/svg" xmlns:xlink="http://www.w3.org/1999/xlink" clip-rule="evenodd" stroke-miterlimit="4.00" viewBox="0 0 1920 1080"><desc>SVG generated by Keynote</desc><defs></defs><g transform="matrix(1.00, 0.00, -0.00, -1.00, 0.0, 1080.0)"><path d="M 0.0 1080.0 L 1920.0 1080.0 L 1920.0 0.0 L 0.0 0.0 Z M 0.0 1080.0 " fill="#F5D327"></path><image xlink:href="800239B5CEA2696EECA27456BF4F826A.png" width="720.00" height="504.00" transform="matrix(2.00, 0.00, -0.00, -2.00, 240.0, 1044.0)"></image><image xlink:href="D52DF314A9681A5C1D537F6103E9FECF.png" width="107.00" height="101.00" transform="matrix(1.00, 0.00, -0.00, -1.00, 1736.7, 215.6)" opacity="0.50"></image><g><clipPath id="clip-155"><path d="M 1790.0 214.6 L 1802.3 176.6 L 1842.3 176.6 L 1809.9 153.1 L 1822.3 115.1 L 1790.0 138.6 L 1757.6 115.1 L 1770.0 153.1 L 1737.7 176.6 L 1777.6 176.6 Z M 1790.0 214.6 "></path></clipPath><g clip-path="url(#clip-155)"><image xlink:href="20C7A5D20B7F4BF774380DF8BD393062.jpeg" width="300.00" height="300.00" transform="matrix(1.00, 0.00, -0.00, -1.00, 1737.7, 214.6)"></image><path d="M 1737.7 214.6 L 1842.3 214.6 L 1842.3 115.1 L 1737.7 115.1 Z M 1737.7 214.6 " fill="#009BFC" fill-opacity="0.50"></path></g></g></g></svg>